<?xml version="1.0" standalone="no"?>
<!DOCTYPE svg PUBLIC "-//W3C//DTD SVG 20010904//EN"
 "http://www.w3.org/TR/2001/REC-SVG-20010904/DTD/svg10.dtd">
<svg version="1.0" xmlns="http://www.w3.org/2000/svg"
 width="512.000000pt" height="512.000000pt" viewBox="0 0 512.000000 512.000000"
 preserveAspectRatio="xMidYMid meet">
<metadata>
Created by potrace 1.14, written by Peter Selinger 2001-2017
</metadata>
<g transform="translate(0.000000,512.000000) scale(0.100000,-0.100000)"
fill="#000000" stroke="none">
<path d="M672 5109 c-313 -41 -562 -263 -645 -573 l-22 -81 0 -1890 c0 -2122
-6 -1957 74 -2121 80 -164 192 -278 353 -359 173 -87 -3 -80 2133 -80 2132 0
1942 -7 2120 80 162 79 275 193 356 359 80 164 74 0 74 2116 0 2130 7 1955
-80 2128 -104 206 -268 341 -493 405 l-77 22 -1865 1 c-1026 1 -1893 -2 -1928
-7z m3808 -2544 l0 -775 -1920 0 -1920 0 0 775 0 775 1920 0 1920 0 0 -775z"/>
<path d="M3838 3200 c-144 -18 -253 -64 -327 -138 -56 -57 -87 -119 -101 -205
-27 -172 51 -288 245 -363 179 -69 225 -106 225 -179 0 -51 -25 -87 -83 -118
-38 -20 -55 -22 -192 -21 -151 0 -163 3 -277 49 -14 5 -22 -12 -52 -104 -20
-61 -36 -115 -36 -121 0 -11 108 -44 200 -61 36 -6 121 -12 190 -11 341 1 554
129 589 354 21 125 -21 246 -107 313 -49 38 -102 65 -226 116 -43 18 -94 45
-112 62 -66 57 -34 150 62 176 66 18 251 14 339 -9 43 -11 79 -20 81 -20 1 0
19 50 39 111 24 71 34 114 28 120 -33 33 -354 65 -485 49z"/>
<path d="M892 2578 c-73 -337 -132 -619 -132 -625 0 -10 36 -13 148 -13 l148
0 90 430 c49 236 91 430 94 430 3 0 63 -194 134 -430 l130 -430 206 0 206 0
127 613 c70 336 127 618 127 625 0 9 -36 12 -148 12 l-148 0 -90 -435 c-49
-239 -91 -435 -94 -435 -3 0 -63 196 -134 435 l-130 435 -201 0 -201 0 -132
-612z"/>
<path d="M2187 2578 c-70 -337 -127 -619 -127 -625 0 -10 38 -13 159 -13 l158
0 54 270 54 270 202 0 c112 0 203 -4 203 -8 0 -5 -22 -120 -50 -257 -27 -137
-50 -255 -50 -262 0 -10 35 -13 158 -13 l158 0 127 613 c70 336 127 618 127
625 0 9 -38 12 -158 12 l-159 0 -49 -240 -49 -240 -202 0 c-123 0 -203 4 -203
10 0 5 20 107 45 226 25 119 45 222 45 230 0 11 -29 14 -158 14 l-158 0 -127
-612z"/>
</g>
</svg>
